<?xml version="1.0" encoding="utf-8"?>
<!-- Generator: Adobe Illustrator 24.0.1, SVG Export Plug-In . SVG Version: 6.00 Build 0)  -->
<svg version="1.1" id="Calque_1" xmlns="http://www.w3.org/2000/svg" xmlns:xlink="http://www.w3.org/1999/xlink" x="0px" y="0px"
	 viewBox="0 0 172.52 61.25" style="enable-background:new 0 0 172.52 61.25;" xml:space="preserve">
<style type="text/css">
	.st0{fill:#FFFFFF;}
</style>
<g>
	<path class="st0" d="M3.12,57.08h4.04V58H1.99v-8.53h1.13V57.08z"/>
	<path class="st0" d="M10.91,58.12c-0.86,0-1.56-0.28-2.1-0.85S8,55.95,8,55v-0.2c0-0.63,0.12-1.19,0.36-1.68s0.58-0.88,1.01-1.16
		s0.9-0.42,1.4-0.42c0.82,0,1.46,0.27,1.92,0.81s0.69,1.32,0.69,2.33v0.45H9.09c0.02,0.63,0.2,1.13,0.55,1.51s0.79,0.58,1.33,0.58
		c0.38,0,0.71-0.08,0.97-0.23s0.5-0.36,0.7-0.62l0.66,0.52C12.77,57.71,11.97,58.12,10.91,58.12z M10.77,52.43
		c-0.44,0-0.8,0.16-1.1,0.48s-0.48,0.76-0.55,1.34h3.18v-0.08c-0.03-0.55-0.18-0.98-0.45-1.28S11.23,52.43,10.77,52.43z"/>
	<path class="st0" d="M23.22,56.5l1.22-4.85h1.08L23.68,58H22.8l-1.54-4.8l-1.5,4.8h-0.88l-1.84-6.34h1.08l1.25,4.75l1.48-4.75h0.87
		L23.22,56.5z"/>
	<path class="st0" d="M29.25,58.12c-0.86,0-1.56-0.28-2.1-0.85s-0.81-1.32-0.81-2.26v-0.2c0-0.63,0.12-1.19,0.36-1.68
		s0.58-0.88,1.01-1.16s0.9-0.42,1.4-0.42c0.82,0,1.46,0.27,1.92,0.81s0.69,1.32,0.69,2.33v0.45h-4.29c0.02,0.63,0.2,1.13,0.55,1.51
		s0.79,0.58,1.33,0.58c0.38,0,0.71-0.08,0.97-0.23s0.5-0.36,0.7-0.62l0.66,0.52C31.11,57.71,30.32,58.12,29.25,58.12z M29.12,52.43
		c-0.44,0-0.8,0.16-1.1,0.48s-0.48,0.76-0.55,1.34h3.18v-0.08c-0.03-0.55-0.18-0.98-0.45-1.28S29.57,52.43,29.12,52.43z"/>
	<path class="st0" d="M38.35,54.9c0,0.97-0.22,1.75-0.67,2.33s-1.04,0.88-1.79,0.88c-0.8,0-1.42-0.28-1.86-0.85L33.98,58h-1v-9h1.08
		v3.36c0.44-0.54,1.04-0.81,1.81-0.81s1.37,0.29,1.81,0.87s0.66,1.38,0.66,2.39V54.9z M37.26,54.78c0-0.74-0.14-1.31-0.43-1.71
		s-0.7-0.6-1.23-0.6c-0.71,0-1.23,0.33-1.54,1v2.74c0.33,0.66,0.85,1,1.55,1c0.52,0,0.92-0.2,1.21-0.6S37.26,55.58,37.26,54.78z"/>
	<path class="st0" d="M40.64,57.11h3.71V58h-5.03v-0.8l3.5-4.65h-3.45v-0.9h4.8v0.77L40.64,57.11z"/>
	<path class="st0" d="M45.58,49.98c0-0.18,0.05-0.32,0.16-0.45s0.27-0.18,0.48-0.18s0.37,0.06,0.48,0.18s0.16,0.27,0.16,0.45
		s-0.05,0.32-0.16,0.44s-0.27,0.18-0.48,0.18s-0.37-0.06-0.48-0.18S45.58,50.15,45.58,49.98z M46.75,58h-1.08v-6.34h1.08V58z"/>
	<path class="st0" d="M49.51,51.66l0.04,0.8c0.48-0.61,1.12-0.91,1.9-0.91c1.34,0,2.02,0.76,2.03,2.27V58h-1.08v-4.2
		c0-0.46-0.11-0.79-0.31-1.01s-0.52-0.33-0.96-0.33c-0.35,0-0.66,0.09-0.93,0.28s-0.47,0.43-0.62,0.74V58h-1.08v-6.34H49.51z"/>
	<path class="st0" d="M57.74,58.12c-0.86,0-1.56-0.28-2.1-0.85s-0.81-1.32-0.81-2.26v-0.2c0-0.63,0.12-1.19,0.36-1.68
		s0.58-0.88,1.01-1.16s0.9-0.42,1.4-0.42c0.82,0,1.46,0.27,1.92,0.81s0.69,1.32,0.69,2.33v0.45h-4.29c0.02,0.63,0.2,1.13,0.55,1.51
		s0.79,0.58,1.33,0.58c0.38,0,0.71-0.08,0.97-0.23s0.5-0.36,0.7-0.62l0.66,0.52C59.6,57.71,58.8,58.12,57.74,58.12z M57.6,52.43
		c-0.44,0-0.8,0.16-1.1,0.48s-0.48,0.76-0.55,1.34h3.18v-0.08c-0.03-0.55-0.18-0.98-0.45-1.28S58.05,52.43,57.6,52.43z"/>
	<path class="st0" d="M64.17,54.78c0-0.97,0.23-1.75,0.69-2.35s1.06-0.89,1.81-0.89c0.74,0,1.33,0.25,1.76,0.76V49h1.08v9h-1
		l-0.05-0.68c-0.43,0.53-1.04,0.8-1.81,0.8c-0.73,0-1.33-0.3-1.8-0.9s-0.69-1.39-0.69-2.36V54.78z M65.25,54.9
		c0,0.72,0.15,1.28,0.45,1.69s0.71,0.61,1.23,0.61c0.69,0,1.19-0.31,1.51-0.93v-2.91c-0.32-0.6-0.82-0.9-1.49-0.9
		c-0.53,0-0.95,0.21-1.24,0.62S65.25,54.09,65.25,54.9z"/>
	<path class="st0" d="M73.83,58.12c-0.86,0-1.56-0.28-2.1-0.85s-0.81-1.32-0.81-2.26v-0.2c0-0.63,0.12-1.19,0.36-1.68
		s0.58-0.88,1.01-1.16s0.9-0.42,1.4-0.42c0.82,0,1.46,0.27,1.92,0.81s0.69,1.32,0.69,2.33v0.45h-4.29c0.02,0.63,0.2,1.13,0.55,1.51
		s0.79,0.58,1.33,0.58c0.38,0,0.71-0.08,0.97-0.23s0.5-0.36,0.7-0.62l0.66,0.52C75.69,57.71,74.89,58.12,73.83,58.12z M73.7,52.43
		c-0.44,0-0.8,0.16-1.1,0.48s-0.48,0.76-0.55,1.34h3.18v-0.08c-0.03-0.55-0.18-0.98-0.45-1.28S74.15,52.43,73.7,52.43z"/>
	<path class="st0" d="M81.25,56.32c0-0.29-0.11-0.52-0.33-0.68s-0.61-0.3-1.15-0.42s-0.98-0.26-1.31-0.42s-0.56-0.36-0.71-0.59
		s-0.23-0.5-0.23-0.81c0-0.52,0.22-0.96,0.66-1.32s1-0.54,1.68-0.54c0.72,0,1.3,0.19,1.75,0.56s0.67,0.85,0.67,1.42h-1.09
		c0-0.3-0.13-0.55-0.38-0.77s-0.57-0.32-0.95-0.32c-0.39,0-0.7,0.09-0.93,0.26s-0.33,0.4-0.33,0.67c0,0.26,0.1,0.46,0.31,0.59
		s0.58,0.26,1.12,0.38s0.98,0.27,1.32,0.43s0.58,0.37,0.75,0.61s0.24,0.52,0.24,0.86c0,0.57-0.23,1.02-0.68,1.36
		s-1.04,0.51-1.76,0.51c-0.51,0-0.96-0.09-1.35-0.27s-0.7-0.43-0.92-0.75s-0.33-0.67-0.33-1.05h1.08c0.02,0.36,0.17,0.65,0.44,0.86
		s0.63,0.32,1.08,0.32c0.41,0,0.74-0.08,0.99-0.25S81.25,56.59,81.25,56.32z"/>
	<path class="st0" d="M85.22,50.12v1.54h1.18v0.84h-1.18v3.94c0,0.25,0.05,0.44,0.16,0.57c0.11,0.13,0.29,0.19,0.54,0.19
		c0.13,0,0.3-0.02,0.52-0.07V58c-0.29,0.08-0.56,0.12-0.83,0.12c-0.48,0-0.85-0.15-1.1-0.44s-0.37-0.71-0.37-1.25V52.5h-1.15v-0.84
		h1.15v-1.54H85.22z"/>
	<path class="st0" d="M87.67,49.98c0-0.18,0.05-0.32,0.16-0.45s0.27-0.18,0.48-0.18s0.37,0.06,0.48,0.18s0.16,0.27,0.16,0.45
		s-0.05,0.32-0.16,0.44s-0.27,0.18-0.48,0.18s-0.37-0.06-0.48-0.18S87.67,50.15,87.67,49.98z M88.84,58h-1.08v-6.34h1.08V58z"/>
	<path class="st0" d="M91.6,51.66l0.04,0.8c0.48-0.61,1.12-0.91,1.9-0.91c1.34,0,2.02,0.76,2.03,2.27V58h-1.08v-4.2
		c0-0.46-0.11-0.79-0.31-1.01s-0.52-0.33-0.96-0.33c-0.35,0-0.66,0.09-0.93,0.28s-0.47,0.43-0.62,0.74V58h-1.08v-6.34H91.6z"/>
	<path class="st0" d="M99.83,58.12c-0.86,0-1.56-0.28-2.1-0.85s-0.81-1.32-0.81-2.26v-0.2c0-0.63,0.12-1.19,0.36-1.68
		s0.58-0.88,1.01-1.16s0.9-0.42,1.4-0.42c0.82,0,1.46,0.27,1.92,0.81s0.69,1.32,0.69,2.33v0.45h-4.29c0.02,0.63,0.2,1.13,0.55,1.51
		s0.79,0.58,1.33,0.58c0.38,0,0.71-0.08,0.97-0.23s0.5-0.36,0.7-0.62l0.66,0.52C101.69,57.71,100.89,58.12,99.83,58.12z M99.7,52.43
		c-0.44,0-0.8,0.16-1.1,0.48s-0.48,0.76-0.55,1.34h3.18v-0.08c-0.03-0.55-0.18-0.98-0.45-1.28S100.15,52.43,99.7,52.43z M100.22,49
		h1.31l-1.57,1.72l-0.87,0L100.22,49z"/>
	<path class="st0" d="M110.44,58c-0.06-0.13-0.11-0.35-0.15-0.67c-0.5,0.52-1.11,0.79-1.8,0.79c-0.63,0-1.14-0.18-1.54-0.53
		s-0.6-0.8-0.6-1.34c0-0.66,0.25-1.17,0.75-1.54s1.21-0.55,2.12-0.55h1.05v-0.5c0-0.38-0.11-0.68-0.34-0.91s-0.56-0.34-1-0.34
		c-0.39,0-0.71,0.1-0.97,0.29s-0.39,0.43-0.39,0.71h-1.09c0-0.32,0.11-0.62,0.34-0.92s0.53-0.53,0.91-0.7s0.81-0.26,1.27-0.26
		c0.73,0,1.3,0.18,1.72,0.55s0.63,0.87,0.64,1.51v2.92c0,0.58,0.07,1.04,0.22,1.39V58H110.44z M108.64,57.17
		c0.34,0,0.66-0.09,0.97-0.26s0.53-0.4,0.66-0.69v-1.3h-0.85c-1.33,0-1.99,0.39-1.99,1.17c0,0.34,0.11,0.61,0.34,0.8
		S108.29,57.17,108.64,57.17z"/>
	<path class="st0" d="M116.97,57.37c-0.42,0.5-1.04,0.74-1.86,0.74c-0.68,0-1.19-0.2-1.54-0.59s-0.53-0.97-0.54-1.74v-4.13h1.08v4.1
		c0,0.96,0.39,1.44,1.17,1.44c0.83,0,1.38-0.31,1.65-0.93v-4.61h1.08V58h-1.03L116.97,57.37z"/>
	<path class="st0" d="M125.32,54.2c-0.96-0.28-1.67-0.62-2.11-1.02s-0.66-0.9-0.66-1.5c0-0.67,0.27-1.23,0.81-1.67
		s1.24-0.66,2.09-0.66c0.59,0,1.11,0.11,1.57,0.34s0.81,0.54,1.07,0.94s0.38,0.83,0.38,1.31h-1.13c0-0.52-0.16-0.92-0.49-1.22
		s-0.79-0.44-1.39-0.44c-0.55,0-0.99,0.12-1.3,0.37c-0.31,0.24-0.47,0.58-0.47,1.02c0,0.35,0.15,0.64,0.44,0.88
		c0.29,0.24,0.8,0.46,1.51,0.66s1.26,0.42,1.66,0.66s0.7,0.52,0.89,0.84s0.29,0.7,0.29,1.13c0,0.69-0.27,1.25-0.81,1.66
		s-1.26,0.62-2.16,0.62c-0.59,0-1.13-0.11-1.64-0.34s-0.9-0.53-1.17-0.92s-0.41-0.83-0.41-1.33h1.13c0,0.52,0.19,0.92,0.57,1.22
		s0.89,0.45,1.53,0.45c0.59,0,1.05-0.12,1.37-0.36s0.47-0.57,0.47-0.99s-0.15-0.74-0.44-0.97S126.09,54.42,125.32,54.2z"/>
	<path class="st0" d="M131.23,50.12v1.54h1.18v0.84h-1.18v3.94c0,0.25,0.05,0.44,0.16,0.57c0.11,0.13,0.29,0.19,0.54,0.19
		c0.13,0,0.3-0.02,0.52-0.07V58c-0.29,0.08-0.56,0.12-0.83,0.12c-0.48,0-0.85-0.15-1.1-0.44s-0.37-0.71-0.37-1.25V52.5h-1.15v-0.84
		h1.15v-1.54H131.23z"/>
	<path class="st0" d="M136.74,52.63c-0.16-0.03-0.34-0.04-0.53-0.04c-0.71,0-1.19,0.3-1.45,0.91V58h-1.08v-6.34h1.05l0.02,0.73
		c0.36-0.57,0.86-0.85,1.51-0.85c0.21,0,0.37,0.03,0.48,0.08V52.63z"/>
	<path class="st0" d="M140.26,58.12c-0.86,0-1.56-0.28-2.1-0.85s-0.81-1.32-0.81-2.26v-0.2c0-0.63,0.12-1.19,0.36-1.68
		s0.58-0.88,1.01-1.16s0.9-0.42,1.4-0.42c0.82,0,1.46,0.27,1.92,0.81s0.69,1.32,0.69,2.33v0.45h-4.29c0.02,0.63,0.2,1.13,0.55,1.51
		s0.79,0.58,1.33,0.58c0.38,0,0.71-0.08,0.97-0.23s0.5-0.36,0.7-0.62l0.66,0.52C142.12,57.71,141.32,58.12,140.26,58.12z
		 M140.13,52.43c-0.44,0-0.8,0.16-1.1,0.48s-0.48,0.76-0.55,1.34h3.18v-0.08c-0.03-0.55-0.18-0.98-0.45-1.28
		S140.58,52.43,140.13,52.43z"/>
	<path class="st0" d="M146.62,58.12c-0.86,0-1.56-0.28-2.1-0.85s-0.81-1.32-0.81-2.26v-0.2c0-0.63,0.12-1.19,0.36-1.68
		s0.58-0.88,1.01-1.16s0.9-0.42,1.4-0.42c0.82,0,1.46,0.27,1.92,0.81s0.69,1.32,0.69,2.33v0.45h-4.29c0.02,0.63,0.2,1.13,0.55,1.51
		s0.79,0.58,1.33,0.58c0.38,0,0.71-0.08,0.97-0.23s0.5-0.36,0.7-0.62l0.66,0.52C148.48,57.71,147.68,58.12,146.62,58.12z
		 M146.48,52.43c-0.44,0-0.8,0.16-1.1,0.48s-0.48,0.76-0.55,1.34h3.18v-0.08c-0.03-0.55-0.18-0.98-0.45-1.28
		S146.94,52.43,146.48,52.43z"/>
	<path class="st0" d="M151.81,50.12v1.54H153v0.84h-1.18v3.94c0,0.25,0.05,0.44,0.16,0.57c0.11,0.13,0.29,0.19,0.54,0.19
		c0.13,0,0.3-0.02,0.52-0.07V58c-0.29,0.08-0.56,0.12-0.83,0.12c-0.48,0-0.85-0.15-1.1-0.44s-0.37-0.71-0.37-1.25V52.5h-1.15v-0.84
		h1.15v-1.54H151.81z"/>
	<path class="st0" d="M162.12,55.77h-3.57l-0.8,2.23h-1.16l3.26-8.53h0.98l3.26,8.53h-1.15L162.12,55.77z M158.88,54.85h2.9
		l-1.45-3.99L158.88,54.85z"/>
	<path class="st0" d="M168.13,52.63c-0.16-0.03-0.34-0.04-0.53-0.04c-0.71,0-1.19,0.3-1.45,0.91V58h-1.08v-6.34h1.05l0.02,0.73
		c0.36-0.57,0.86-0.85,1.51-0.85c0.21,0,0.37,0.03,0.48,0.08V52.63z"/>
	<path class="st0" d="M170.89,50.12v1.54h1.18v0.84h-1.18v3.94c0,0.25,0.05,0.44,0.16,0.57c0.11,0.13,0.29,0.19,0.54,0.19
		c0.13,0,0.3-0.02,0.52-0.07V58c-0.29,0.08-0.56,0.12-0.83,0.12c-0.48,0-0.85-0.15-1.1-0.44s-0.37-0.71-0.37-1.25V52.5h-1.15v-0.84
		h1.15v-1.54H170.89z"/>
</g>
<g>
	<path class="st0" d="M10.27,45.81c-1.89,0-3.46-0.48-4.73-1.43c-1.27-0.95-2.22-2.34-2.87-4.18c-0.65-1.83-1.01-4.08-1.08-6.75
		l4.92-1.25c0.05,1.57,0.2,2.95,0.45,4.15s0.62,2.13,1.12,2.78c0.5,0.65,1.17,0.98,2,0.98c0.93,0,1.59-0.36,1.98-1.08
		c0.39-0.72,0.58-1.63,0.58-2.73c0-1.77-0.31-3.22-0.93-4.35c-0.62-1.13-1.45-2.27-2.48-3.4l-3.95-4.5c-1.11-1.23-2-2.61-2.65-4.13
		c-0.66-1.52-0.99-3.39-0.99-5.63c0-3.2,0.72-5.67,2.17-7.4c1.45-1.73,3.42-2.6,5.93-2.6c1.47,0,2.7,0.29,3.68,0.88
		c0.98,0.58,1.76,1.39,2.34,2.43c0.58,1.03,1.01,2.21,1.3,3.53c0.28,1.32,0.46,2.71,0.54,4.18l-4.88,1.1
		c-0.05-1.27-0.16-2.4-0.33-3.4c-0.17-1-0.46-1.78-0.89-2.35S10.44,9.8,9.61,9.8c-0.85,0-1.5,0.36-1.96,1.08
		c-0.45,0.72-0.68,1.61-0.68,2.68c0,1.37,0.22,2.49,0.66,3.38c0.44,0.88,1.07,1.79,1.9,2.73l3.91,4.45c1.29,1.4,2.4,3.04,3.31,4.93
		c0.92,1.88,1.38,4.16,1.38,6.83c0,1.93-0.33,3.65-0.99,5.15c-0.66,1.5-1.58,2.68-2.75,3.53C13.22,45.38,11.84,45.81,10.27,45.81z"
		/>
	<path class="st0" d="M24.64,45.26V10.2h-5V4.75H35.3v5.45h-4.92v35.06H24.64z"/>
	<path class="st0" d="M38.17,45.26V4.75h7.52c2.12,0,3.91,0.33,5.37,0.98c1.46,0.65,2.57,1.76,3.33,3.33
		c0.76,1.57,1.14,3.7,1.14,6.4c0,1.63-0.12,3.1-0.35,4.4c-0.23,1.3-0.63,2.41-1.18,3.33c-0.56,0.92-1.32,1.63-2.31,2.13l4.38,19.95
		h-5.73l-3.8-18.55H43.9v18.55H38.17z M43.9,22.05h1.78c1.11,0,2-0.21,2.65-0.63c0.66-0.42,1.13-1.08,1.41-2
		c0.28-0.92,0.43-2.09,0.43-3.53c0-2.03-0.29-3.56-0.87-4.58c-0.58-1.02-1.69-1.53-3.31-1.53H43.9V22.05z"/>
	<path class="st0" d="M59.83,45.26V4.75H73v5.2h-7.44V21.6h5.85v5.15h-5.85v13.4h7.52v5.1H59.83z"/>
	<path class="st0" d="M76.41,45.26V4.75h13.17v5.2h-7.44V21.6H88v5.15h-5.85v13.4h7.52v5.1H76.41z"/>
	<path class="st0" d="M96.13,45.26V10.2h-5V4.75h15.65v5.45h-4.92v35.06H96.13z"/>
	<path class="st0" d="M108.57,45.26v-4.75l8.45-30.66h-7.98v-5.1h13.75v3.8l-8.76,31.61h8.8v5.1H108.57z"/>
	<path class="st0" d="M126.16,45.26V4.75h5.66v40.51H126.16z"/>
	<path class="st0" d="M136.66,45.26V4.75h3.99l7.63,23.1V4.75h4.73v40.51h-3.8l-7.67-24.2v24.2H136.66z"/>
	<path class="st0" d="M157.78,45.26V4.75h13.17v5.2h-7.44V21.6h5.85v5.15h-5.85v13.4h7.52v5.1H157.78z"/>
</g>
</svg>
